<?xml version="1.0" encoding="UTF-8"?>
<svg version="1.1" xmlns="http://www.w3.org/2000/svg" width="200" height="200">
<path d="M0 0 C66 0 132 0 200 0 C200 66 200 132 200 200 C134 200 68 200 0 200 C0 134 0 68 0 0 Z " fill="#FDFEFE" transform="translate(0,0)"/>
<path d="M0 0 C-1.3255581 3.62276315 -2.94346955 6.63505348 -5.125 9.8125 C-5.93324219 10.99779297 -5.93324219 10.99779297 -6.7578125 12.20703125 C-7.16773438 12.79871094 -7.57765625 13.39039062 -8 14 C-6.68 14 -5.36 14 -4 14 C-3.79375 13.34 -3.5875 12.68 -3.375 12 C-1.36212474 7.60827216 1.56788333 3.43211667 5 0 C7.33297433 -0.04092937 9.66705225 -0.04241723 12 0 C10.74383494 3.71327913 8.95077374 6.52158325 6.62280273 9.65771484 C0.66938104 17.85109544 -0.13794126 23.96925849 1 34 C0.15695313 33.76990234 0.15695313 33.76990234 -0.703125 33.53515625 C-3.05838878 32.98639581 -5.34548104 32.68502401 -7.75 32.4375 C-8.54921875 32.35371094 -9.3484375 32.26992187 -10.171875 32.18359375 C-11.07679687 32.09271484 -11.07679687 32.09271484 -12 32 C-12 32.66 -12 33.32 -12 34 C-12.66 34 -13.32 34 -14 34 C-14.07347656 32.46279297 -14.07347656 32.46279297 -14.1484375 30.89453125 C-14.22351071 29.5338294 -14.29905655 28.17315356 -14.375 26.8125 C-14.42140625 25.80219727 -14.42140625 25.80219727 -14.46875 24.77148438 C-14.6515998 21.64780033 -14.8992897 19.21444622 -16.23828125 16.36328125 C-17 14 -17 14 -15.76953125 11.2109375 C-15.12371094 10.27507812 -14.47789063 9.33921875 -13.8125 8.375 C-13.17957031 7.43398437 -12.54664063 6.49296875 -11.89453125 5.5234375 C-8.03107628 0.37747479 -6.65359206 -0.37661842 0 0 Z " fill="#B9C5DF" transform="translate(61,83)"/>
<path d="M0 0 C1.30710938 -0.01675781 2.61421875 -0.03351563 3.9609375 -0.05078125 C7.75990359 0.3258753 9.61193991 1.03733218 12.625 3.3125 C15.19132517 6.73426689 14.98935051 10.15890421 14.625 14.3125 C12.79971702 18.5394711 10.69551928 20.27436163 6.625 22.3125 C3.6875 22.7109375 3.6875 22.7109375 0.625 22.6875 C-0.385625 22.69523437 -1.39625 22.70296875 -2.4375 22.7109375 C-6.79998692 22.1192172 -9.44421073 20.46796254 -12.1875 17.0625 C-13.70607326 13.54580403 -13.78218483 11.11289173 -13.375 7.3125 C-10.32699028 0.7810506 -6.91991173 0.02039267 0 0 Z " fill="#1A4397" transform="translate(151.375,82.6875)"/>
<path d="M0 0 C6.93 0 13.86 0 21 0 C21.33 1.32 21.66 2.64 22 4 C20.24163592 6.1302685 18.57575206 7.8949842 16.5625 9.75 C16.03333984 10.25660156 15.50417969 10.76320313 14.95898438 11.28515625 C13.65022899 12.53495869 12.32648041 13.76902618 11 15 C14.63 15.33 18.26 15.66 22 16 C22 17.98 22 19.96 22 22 C15.07 22 8.14 22 1 22 C0.67 20.35 0.34 18.7 0 17 C1.76473218 14.78736625 3.36726972 13.06247277 5.4375 11.1875 C6.23124023 10.43436523 6.23124023 10.43436523 7.04101562 9.66601562 C8.34760964 8.43004832 9.67216063 7.21311405 11 6 C7.37 5.67 3.74 5.34 0 5 C0 3.35 0 1.7 0 0 Z " fill="#1C4498" transform="translate(105,83)"/>
<path d="M0 0 C2.31 0 4.62 0 7 0 C7 7.26 7 14.52 7 22 C4.03 22 1.06 22 -2 22 C-2 20.02 -2 18.04 -2 16 C-5.96 16 -9.92 16 -14 16 C-10.41083354 11.62296773 -6.8702887 7.85832842 -2.41796875 4.359375 C-0.72307278 2.94585114 -0.72307278 2.94585114 0 0 Z " fill="#E6EAF3" transform="translate(129,83)"/>
<path d="M0 0 C1.65 0 3.3 0 5 0 C5 5.28 5 10.56 5 16 C9.62 16 14.24 16 19 16 C19 17.98 19 19.96 19 22 C12.73 22 6.46 22 0 22 C0 14.74 0 7.48 0 0 Z " fill="#174095" transform="translate(84,83)"/>
<path d="M0 0 C0.86625 -0.00773437 1.7325 -0.01546875 2.625 -0.0234375 C5.44245433 0.44922754 6.33626503 1.08333925 8 3.375 C8.375 6.4375 8.375 6.4375 8 9.375 C4.63648987 11.61734009 3.37689944 11.64598215 -0.5625 11.625 C-1.53316406 11.63015625 -2.50382813 11.6353125 -3.50390625 11.640625 C-6 11.375 -6 11.375 -8 9.375 C-8.55648937 4.14399988 -8.55648937 4.14399988 -6.79296875 1.70703125 C-4.42916563 -0.04908392 -2.92146841 -0.02608454 0 0 Z " fill="#F5F7FA" transform="translate(152,87.625)"/>
<path d="M0 0 C1.670625 0.061875 1.670625 0.061875 3.375 0.125 C1.69321351 4.96969177 -0.92097253 9.11491895 -3.625 13.4375 C-4.07617188 14.17806641 -4.52734375 14.91863281 -4.9921875 15.68164062 C-5.42789063 16.38095703 -5.86359375 17.08027344 -6.3125 17.80078125 C-6.70824219 18.43927002 -7.10398437 19.07775879 -7.51171875 19.7355957 C-8.06279297 20.42335083 -8.06279297 20.42335083 -8.625 21.125 C-9.285 21.125 -9.945 21.125 -10.625 21.125 C-12.375 18.9375 -12.375 18.9375 -13.625 16.125 C-12.5097401 12.50633756 -10.74278348 9.55593618 -8.625 6.4375 C-7.8515625 5.28701172 -7.8515625 5.28701172 -7.0625 4.11328125 C-4.19319287 0.14459286 -4.19319287 0.14459286 0 0 Z " fill="#143E94" transform="translate(57.625,82.875)"/>
<path d="M0 0 C1.670625 0.061875 1.670625 0.061875 3.375 0.125 C1.69321351 4.96969177 -0.92097253 9.11491895 -3.625 13.4375 C-4.07617188 14.17806641 -4.52734375 14.91863281 -4.9921875 15.68164062 C-5.42789063 16.38095703 -5.86359375 17.08027344 -6.3125 17.80078125 C-6.70824219 18.43927002 -7.10398437 19.07775879 -7.51171875 19.7355957 C-8.06279297 20.42335083 -8.06279297 20.42335083 -8.625 21.125 C-9.285 21.125 -9.945 21.125 -10.625 21.125 C-12.375 18.9375 -12.375 18.9375 -13.625 16.125 C-12.5097401 12.50633756 -10.74278348 9.55593618 -8.625 6.4375 C-7.8515625 5.28701172 -7.8515625 5.28701172 -7.0625 4.11328125 C-4.19319287 0.14459286 -4.19319287 0.14459286 0 0 Z " fill="#143E94" transform="translate(69.625,82.875)"/>
<path d="M0 0 C1.65 0 3.3 0 5 0 C5 6.93 5 13.86 5 21 C3.35 21 1.7 21 0 21 C0 14.07 0 7.14 0 0 Z " fill="#0C3891" transform="translate(130,83)"/>
<path d="M0 0 C1.65 0 3.3 0 5 0 C5 6.93 5 13.86 5 21 C3.35 21 1.7 21 0 21 C0 14.07 0 7.14 0 0 Z " fill="#0D3791" transform="translate(75,83)"/>
<path d="M0 0 C7.42608696 -0.48695652 7.42608696 -0.48695652 10.0625 1.75 C11 4 11 4 10.8125 6.0625 C10 8 10 8 8 11 C7.34 11 6.68 11 6 11 C4.02 7.37 2.04 3.74 0 0 Z " fill="#164095" transform="translate(35,83)"/>
<path d="M0 0 C3 0.125 3 0.125 4 1.125 C4.125 4.125 4.125 4.125 4 7.125 C3 8.125 3 8.125 0.5625 8.3125 C-2 8.125 -2 8.125 -4 6.125 C-4.1875 3.5625 -4.1875 3.5625 -4 1.125 C-3 0.125 -3 0.125 0 0 Z " fill="#24499B" transform="translate(67,108.875)"/>
<path d="M0 0 C1.81242052 -0.02687279 3.62495233 -0.04633715 5.4375 -0.0625 C6.44683594 -0.07410156 7.45617187 -0.08570312 8.49609375 -0.09765625 C11 0 11 0 12 1 C12.04092937 3.33297433 12.04241723 5.66705225 12 8 C11.34 8 10.68 8 10 8 C9.67 6.02 9.34 4.04 9 2 C8.67 2 8.34 2 8 2 C7.67 3.98 7.34 5.96 7 8 C6.34 8 5.68 8 5 8 C4.67 6.02 4.34 4.04 4 2 C3.67 2 3.34 2 3 2 C2.67 3.98 2.34 5.96 2 8 C1.34 8 0.68 8 0 8 C0 5.36 0 2.72 0 0 Z " fill="#1A4297" transform="translate(73,109)"/>
<path d="M0 0 C1.2065625 0.0309375 1.2065625 0.0309375 2.4375 0.0625 C2.7675 1.7125 3.0975 3.3625 3.4375 5.0625 C1.7875 5.0625 0.1375 5.0625 -1.5625 5.0625 C-1.5625 5.7225 -1.5625 6.3825 -1.5625 7.0625 C-0.2425 7.3925 1.0775 7.7225 2.4375 8.0625 C0.77138095 8.105221 -0.89632885 8.10313832 -2.5625 8.0625 C-3.5625 7.0625 -3.5625 7.0625 -3.6875 4.0625 C-3.52180824 0.08589776 -3.52180824 0.08589776 0 0 Z " fill="#5C78B5" transform="translate(146.5625,108.9375)"/>
<path d="M0 0 C1 3 1 3 0.1796875 5.0078125 C-0.25085937 5.70648438 -0.68140625 6.40515625 -1.125 7.125 C-1.54007813 7.82882813 -1.95515625 8.53265625 -2.3828125 9.2578125 C-4.45281916 11.48781967 -6.03223149 11.67024794 -9 12 C-7.88096454 10.18381144 -6.75458716 8.37214474 -5.625 6.5625 C-4.68527344 5.04849609 -4.68527344 5.04849609 -3.7265625 3.50390625 C-2 1 -2 1 0 0 Z " fill="#E4E8F2" transform="translate(61,86)"/>
<path d="M0 0 C1.2065625 0.0309375 1.2065625 0.0309375 2.4375 0.0625 C2.7675 1.3825 3.0975 2.7025 3.4375 4.0625 C1.7875 4.0625 0.1375 4.0625 -1.5625 4.0625 C-0.60384491 6.39325929 -0.60384491 6.39325929 2.4375 8.0625 C0.7875 8.0625 -0.8625 8.0625 -2.5625 8.0625 C-2.94313221 5.7364143 -3.27519945 3.40194736 -3.5625 1.0625 C-2.5625 0.0625 -2.5625 0.0625 0 0 Z " fill="#294E9E" transform="translate(122.5625,108.9375)"/>
<path d="M0 0 C1.2065625 0.0309375 1.2065625 0.0309375 2.4375 0.0625 C2.7675 1.3825 3.0975 2.7025 3.4375 4.0625 C1.7875 4.0625 0.1375 4.0625 -1.5625 4.0625 C-0.9025 3.4025 -0.2425 2.7425 0.4375 2.0625 C-0.2225 2.0625 -0.8825 2.0625 -1.5625 2.0625 C-1.8925 3.3825 -2.2225 4.7025 -2.5625 6.0625 C-0.9125 6.0625 0.7375 6.0625 2.4375 6.0625 C2.4375 6.7225 2.4375 7.3825 2.4375 8.0625 C0.77138095 8.105221 -0.89632885 8.10313832 -2.5625 8.0625 C-3.5625 7.0625 -3.5625 7.0625 -3.6875 4.0625 C-3.52180824 0.08589776 -3.52180824 0.08589776 0 0 Z " fill="#23489A" transform="translate(90.5625,108.9375)"/>
<path d="M0 0 C1.99954746 -0.04254356 4.00041636 -0.04080783 6 0 C7 1 7 1 7.0625 4.5625 C7.041875 5.696875 7.02125 6.83125 7 8 C6.67 8 6.34 8 6 8 C5.67 6.02 5.34 4.04 5 2 C4.34 2 3.68 2 3 2 C2.67 3.98 2.34 5.96 2 8 C1.34 8 0.68 8 0 8 C0 5.36 0 2.72 0 0 Z " fill="#2D52A0" transform="translate(103,109)"/>
<path d="M0 0 C0.33 0.66 0.66 1.32 1 2 C1.66 2.33 2.32 2.66 3 3 C2.34 3 1.68 3 1 3 C1 4.98 1 6.96 1 9 C1.66 9.33 2.32 9.66 3 10 C1.68 9.67 0.36 9.34 -1 9 C-1.625 5.625 -1.625 5.625 -2 2 C-1.34 1.34 -0.68 0.68 0 0 Z " fill="#3559A4" transform="translate(114,107)"/>
<path d="M0 0 C1.65 0 3.3 0 5 0 C4.34 0.66 3.68 1.32 3 2 C2.60235737 3.98821313 2.26224651 5.98944339 2 8 C1.34 8 0.68 8 0 8 C0 5.36 0 2.72 0 0 Z " fill="#3D5FA7" transform="translate(128,109)"/>
<path d="M0 0 C0.99 0.33 1.98 0.66 3 1 C3 2.32 3 3.64 3 5 C1.68 5 0.36 5 -1 5 C-0.67 3.35 -0.34 1.7 0 0 Z " fill="#DDE3F0" transform="translate(66,110)"/>
<path d="M0 0 C0.99 0.66 1.98 1.32 3 2 C2.34 2 1.68 2 1 2 C1.57452746 5.93075644 1.57452746 5.93075644 4 9 C2.68 9 1.36 9 0 9 C0 6.69 0 4.38 0 2 C-0.66 1.67 -1.32 1.34 -2 1 C-1.34 0.67 -0.68 0.34 0 0 Z " fill="#20489A" transform="translate(153,108)"/>
<path d="M0 0 C1.65 0 3.3 0 5 0 C5 0.99 5 1.98 5 3 C3.35 3 1.7 3 0 3 C0 2.01 0 1.02 0 0 Z " fill="#7B92C3" transform="translate(120,109)"/>
</svg>
