<svg width="24" height="24" viewBox="0 0 24 24" fill="none" xmlns="http://www.w3.org/2000/svg">
  <path d="M12 2C12 1.44772 12.4477 1 13 1H17C17.5523 1 18 1.44772 18 2V2.205C18.8295 2.55595 19.6288 3.02606 20.373 3.605C20.7777 3.91528 20.8525 4.50431 20.5422 4.90905C20.2319 5.31379 19.6429 5.38855 19.2382 5.07828C18.6172 4.60394 17.9484 4.22164 17.25 3.937V13C17.25 16.7279 13.9921 20 10 20C7.51472 20 5.5 17.9853 5.5 15.5C5.5 13.0147 7.51472 11 10 11C10.1702 11 10.3369 11.0071 10.5 11.021C10.7755 11.0424 11 11.2666 11 11.5421V12.9579C11 13.2334 10.7755 13.4576 10.5 13.479C10.3345 13.4929 10.168 13.5 10 13.5C8.61929 13.5 7.5 14.6193 7.5 16C7.5 17.3807 8.61929 18.5 10 18.5C12.4853 18.5 14.5 16.4853 14.5 14V4H13C12.4477 4 12 3.55228 12 3V2Z" fill="white"/>
</svg>
